<?xml version="1.0" standalone="no"?>
<!DOCTYPE svg PUBLIC "-//W3C//DTD SVG 20010904//EN"
 "http://www.w3.org/TR/2001/REC-SVG-20010904/DTD/svg10.dtd">
<svg version="1.0" xmlns="http://www.w3.org/2000/svg"
 width="300.000000pt" height="225.000000pt" viewBox="0 0 300.000000 225.000000"
 preserveAspectRatio="xMidYMid meet">
<metadata>
Created by potrace 1.10, written by Peter Selinger 2001-2011
</metadata>
<g transform="translate(0.000000,225.000000) scale(0.100000,-0.100000)"
fill="#000000" stroke="none">
<path d="M1377 1563 c-2 -5 -10 -46 -17 -93 -6 -47 -15 -92 -19 -100 -9 -18
-149 -100 -171 -100 -12 0 -15 -16 -17 -73 -2 -49 0 -67 7 -57 5 8 10 24 10
35 1 12 21 34 53 57 29 21 64 47 80 59 53 41 28 -5 -58 -105 -47 -54 -85 -91
-85 -82 0 27 -15 18 -16 -10 -1 -14 -9 -33 -18 -43 -20 -22 -21 -45 -2 -60 11
-9 21 -3 50 30 20 24 36 48 36 54 0 15 95 105 110 105 12 0 -23 -54 -41 -66
-6 -3 -24 -24 -40 -46 -54 -75 -27 -118 39 -63 35 29 42 31 42 10 0 -8 -8 -15
-17 -16 -14 0 -13 -2 5 -9 29 -12 28 -24 -5 -48 -21 -15 -34 -17 -52 -11 -43
17 -104 -43 -104 -102 0 -17 -5 -28 -11 -26 -6 3 -10 8 -9 13 7 44 10 154 4
134 -5 -14 -10 -45 -10 -70 -2 -64 -11 -90 -31 -90 -19 0 -18 -3 -36 197 -6
69 -5 71 15 66 12 -3 21 -1 21 5 0 5 -13 12 -29 15 -25 5 -30 13 -41 59 -17
74 -88 215 -130 258 -61 64 -120 92 -197 93 -89 2 -163 -11 -170 -29 -12 -31
115 -178 208 -240 70 -48 158 -94 223 -119 69 -26 65 -17 89 -200 10 -76 11
-108 3 -110 -6 -2 -63 -11 -126 -20 -63 -9 -206 -39 -318 -66 -111 -28 -208
-49 -214 -47 -7 3 27 13 75 23 48 10 87 22 87 27 0 4 -12 6 -28 2 -108 -25
-231 -59 -310 -87 -79 -27 -92 -35 -90 -52 4 -29 39 -30 100 -1 29 13 70 31
90 40 38 15 361 97 458 115 100 20 284 50 285 48 1 -1 12 -85 24 -187 22 -184
36 -250 50 -250 16 0 19 13 10 43 -10 34 -14 395 -5 405 3 3 18 6 33 8 16 1
51 5 78 9 28 3 59 7 70 8 13 1 25 -9 37 -35 10 -21 25 -38 33 -38 8 0 15 3 15
8 0 10 -24 75 -32 88 -4 6 -10 37 -14 67 l-7 57 47 20 c63 27 73 25 81 -11 7
-31 36 -52 43 -31 2 7 12 12 22 12 13 0 19 -10 23 -42 3 -24 4 -44 2 -46 -3
-4 -26 -7 -117 -17 -32 -4 -58 -11 -58 -17 0 -6 16 -8 43 -4 135 19 350 33
652 41 l200 6 -40 -20 c-38 -20 -38 -21 -10 -17 17 2 55 11 85 20 44 13 105
16 299 16 142 0 260 -4 283 -11 49 -13 55 -8 31 25 l-18 25 -277 -6 c-194 -4
-278 -3 -278 4 0 6 -15 16 -32 23 l-33 11 48 44 c48 44 48 44 31 70 -9 14 -21
25 -26 25 -27 0 -153 -78 -184 -114 l-34 -40 -22 21 -21 21 22 35 c36 59 192
154 297 181 49 12 59 22 46 44 -10 14 -97 -9 -196 -53 -31 -14 -58 -25 -61
-25 -11 0 47 107 67 125 46 39 51 51 34 83 -8 15 -22 34 -30 41 -11 9 -16 30
-16 61 0 57 -25 89 -36 46 -3 -15 -4 -36 -1 -47 3 -11 1 -63 -5 -115 -10 -88
-13 -96 -40 -115 -35 -25 -42 -21 -28 15 8 21 6 34 -6 58 -18 35 -21 33 -56
-47 -111 -252 -120 -266 -138 -211 -12 38 2 78 43 123 17 19 19 27 9 48 -19
41 -54 33 -104 -25 -33 -37 -58 -55 -98 -69 -30 -11 -56 -18 -58 -16 -2 2 7
44 19 94 16 67 27 92 41 96 20 7 22 13 9 35 -8 12 -17 11 -58 -9 -27 -12 -61
-21 -77 -19 -26 3 -29 -1 -55 -77 -30 -86 -62 -153 -93 -198 -17 -24 -21 -25
-35 -12 -16 17 -35 14 -95 -14 -44 -21 -52 -12 -37 43 9 33 43 76 60 76 17 0
79 95 79 122 0 28 -9 33 -53 28 -14 -1 -17 4 -12 27 4 15 11 40 17 56 7 19 7
31 -1 40 -6 8 -14 47 -17 88 -6 70 -16 99 -35 99 -4 0 -10 -3 -12 -7z m27
-164 c-35 -39 -44 -20 -18 39 l16 37 10 -28 c8 -22 6 -32 -8 -48z m-578 18
c58 -40 101 -99 142 -199 43 -104 46 -118 29 -118 -27 0 -222 105 -284 152
-79 61 -130 121 -128 150 2 30 49 47 131 47 54 1 68 -3 110 -32z m1454 -86 c0
-10 -11 -28 -25 -41 -28 -27 -31 -18 -14 43 8 32 13 36 25 26 8 -6 14 -19 14
-28z m-877 -58 c-23 -47 -47 -57 -37 -16 7 32 47 80 52 64 2 -6 -5 -28 -15
-48z m67 -31 c0 -20 -104 -142 -122 -142 -12 0 19 90 39 112 26 29 83 50 83
30z m255 -35 c-17 -111 -17 -111 -68 -122 -60 -13 -78 -32 -84 -89 -4 -30 -10
-46 -19 -46 -22 0 -16 38 16 107 17 34 30 65 30 68 0 2 9 29 21 60 18 49 23
54 44 49 12 -3 26 -1 29 5 4 6 14 11 22 11 12 0 14 -9 9 -43z m-417 -17 c-36
-30 -45 -23 -13 10 17 17 31 26 33 20 2 -6 -7 -19 -20 -30z m817 -24 c11 1 28
5 39 9 17 7 17 6 3 -21 -8 -16 -23 -36 -33 -45 -22 -19 -104 -62 -109 -57 -2
2 11 42 28 89 32 85 32 85 42 55 7 -22 16 -31 30 -30z m-171 15 c3 -4 -7 -31
-21 -58 -25 -47 -26 -53 -14 -91 13 -37 12 -43 -8 -76 -18 -29 -20 -39 -11
-56 18 -34 43 -19 75 47 17 35 35 63 41 63 6 0 52 25 103 55 144 87 211 122
211 111 0 -2 -37 -25 -82 -52 -98 -57 -178 -131 -178 -163 0 -12 11 -33 25
-46 16 -14 22 -26 16 -30 -6 -3 -93 -10 -193 -15 -101 -5 -209 -12 -241 -15
-54 -5 -57 -4 -48 12 34 58 55 67 65 28 7 -29 45 -36 42 -8 0 10 9 20 24 24
24 7 24 7 3 8 -64 3 18 155 99 184 18 6 37 10 42 9 5 -2 6 7 3 19 -10 39 29
80 47 50z m-652 -124 c-13 -12 -27 -17 -37 -13 -15 5 -12 11 16 44 33 36 34
36 37 13 2 -14 -5 -32 -16 -44z m382 7 c13 -5 15 -14 10 -43 -8 -44 -40 -81
-71 -81 -19 0 -23 5 -23 29 0 57 16 81 67 100 1 1 9 -2 17 -5z m66 -5 c0 -15
-19 -49 -29 -49 -4 0 -6 14 -3 30 4 27 32 44 32 19z m551 -64 c-37 -42 -39
-70 -8 -96 22 -18 22 -18 -43 -12 -36 3 -69 9 -74 13 -11 11 67 94 107 114 48
24 52 20 18 -19z m-968 -102 c4 -20 5 -39 2 -41 -8 -8 -37 49 -31 63 10 26 23
16 29 -22z m-29 -35 l26 -33 -38 -7 c-20 -4 -47 -7 -60 -7 l-22 -1 26 40 c15
22 30 40 35 40 4 0 19 -15 33 -32z m-198 -139 c-3 -34 -7 -76 -7 -93 -2 -41
-17 52 -18 112 -1 33 3 42 15 42 15 0 16 -9 10 -61z"/>
</g>
</svg>
